HIERARCHY
ROOT Hips
{
  OFFSET -331.093 83.8371 -317.828
  CHANNELS 6 Xposition Yposition Zposition Zrotation Xrotation Yrotation
  JOINT LeftUpLeg
  {
    OFFSET 8.64259 1.95398 -2.38835
    CHANNELS 3 Zrotation Xrotation Yrotation
    JOINT LeftLeg
    {
      OFFSET 43.7702 0 0
      CHANNELS 3 Zrotation Xrotation Yrotation
      JOINT LeftFoot
      {
        OFFSET 40.6238 0 0
        CHANNELS 3 Zrotation Xrotation Yrotation
        JOINT LeftToeBase
        {
          OFFSET 12.7242 0 0
          CHANNELS 3 Zrotation Xrotation Yrotation
          End Site
          {
            OFFSET 0 0 0
          }
        }
      }
    }
  }
  JOINT RightUpLeg
  {
    OFFSET -8.2249 1.95398 -2.59336
    CHANNELS 3 Zrotation Xrotation Yrotation
    JOINT RightLeg
    {
      OFFSET 43.5653 0 0
      CHANNELS 3 Zrotation Xrotation Yrotation
      JOINT RightFoot
      {
        OFFSET 40.6238 0 0
        CHANNELS 3 Zrotation Xrotation Yrotation
        JOINT RightToeBase
        {
          OFFSET 12.7242 0 0
          CHANNELS 3 Zrotation Xrotation Yrotation
          End Site
          {
            OFFSET 0 0 0
          }
        }
      }
    }
  }
  JOINT Spine
  {
    OFFSET 0.165834 0.87714 6.61349
    CHANNELS 3 Zrotation Xrotation Yrotation
    JOINT Spine1
    {
      OFFSET 7.38963 1.71661e-005 0
      CHANNELS 3 Zrotation Xrotation Yrotation
      JOINT Spine2
      {
        OFFSET 11.9445 1.14441e-005 0
        CHANNELS 3 Zrotation Xrotation Yrotation
        JOINT Spine3
        {
          OFFSET 14.7254 4.19617e-005 0
          CHANNELS 3 Zrotation Xrotation Yrotation
          JOINT Spine4
          {
            OFFSET 10.9679 0 0
            CHANNELS 3 Zrotation Xrotation Yrotation
            JOINT RightShoulder
            {
              OFFSET 2.46616 -1.6653 3.69651
              CHANNELS 3 Zrotation Xrotation Yrotation
              JOINT RightArm
              {
                OFFSET 13.0012 0 0
                CHANNELS 3 Zrotation Xrotation Yrotation
                JOINT RightForeArm
                {
                  OFFSET 28.7848 1.62311e-005 0
                  CHANNELS 3 Zrotation Xrotation Yrotation
                  JOINT RightHand
                  {
                    OFFSET 26.5688 1.62095e-005 0
                    CHANNELS 3 Zrotation Xrotation Yrotation
                    End Site
                    {
                      OFFSET 0 0 0
                    }
                  }
                }
              }
            }
            JOINT LeftShoulder
            {
              OFFSET 2.38034 -1.29275 -3.7523
              CHANNELS 3 Zrotation Xrotation Yrotation
              JOINT LeftArm
              {
                OFFSET 16.3182 6.07031e-005 0
                CHANNELS 3 Zrotation Xrotation Yrotation
                JOINT LeftForeArm
                {
                  OFFSET 27.0901 0 0
                  CHANNELS 3 Zrotation Xrotation Yrotation
                  JOINT LeftHand
                  {
                    OFFSET 24.5451 1.51738e-005 0
                    CHANNELS 3 Zrotation Xrotation Yrotation
                    End Site
                    {
                      OFFSET 0 0 0
                    }
                  }
                }
              }
            }
            JOINT Neck
            {
              OFFSET 5.0226 -0.0266342 0
              CHANNELS 3 Zrotation Xrotation Yrotation
              JOINT Head
              {
                OFFSET 6.69364 2.86102e-005 0
                CHANNELS 3 Zrotation Xrotation Yrotation
                End Site
                {
                  OFFSET 0 0 0
                }
              }
            }
          }
        }
      }
    }
  }
}
MOTION
Frames:	12
Frame Time:	0.0416667
42.4704 99.2109 -273.625 -50.127 -86.4906 -50.7056 -176.362 6.68809 86.2957 -17.2807 10.8503 -1.44368 64.4359 5.83535 7.68536 34.2926 4.06695 -0.175273 174.16 4.1135 91.2897 -16.3806 -8.14599 -3.51161 69.2405 -4.48649 -2.35636 32.7625 -0.764839 -4.52473 -0.00386586 7.2141 -89.7642 12.4469 0.104611 0.460859 0.775854 0.124798 0.455807 -21.7589 -0.0387271 0.471001 -1.74621 -0.0387383 0.47099 91.8745 -36.6208 -100.682 34.6458 -30.3565 3.01215 -31.2964 -10.3318 -68.7472 -9.62981 -1.00152 -0.432458 -95.6949 -47.1344 69.8937 -23.7274 32.8429 5.43412 32.8565 2.47537 -74.4656 10.1097 1.60147 11.2639 2.06896 -7.81132 1.57361 -3.65426 -7.93342 -1.41992 
42.8795 99.2483 -273.398 -50.3705 -89.2328 -51.7568 -177.41 4.21078 85.2969 -16.0605 12.024 -0.790194 63.7151 5.94134 8.29701 34.2363 3.96904 -0.365428 172.174 2.21461 90.3254 -16.7143 -8.27385 -2.68607 69.7892 -4.5264 -2.38944 32.5108 -0.857529 -5.23653 -0.323589 7.39441 -89.6421 12.0891 -0.47419 0.763777 0.417894 -0.440111 0.783894 -22.1164 -0.681815 0.585962 -2.10377 -0.681809 0.585966 92.1028 -35.7534 -100.506 28.0173 -39.5535 -3.40102 -36.7646 2.51212 -79.0376 5.33115 -0.405933 -10.1087 -94.4483 -46.3152 71.5256 -20.6893 40.8094 2.76929 38.3628 -8.42391 -82.7625 13.4661 1.43204 6.45214 1.34201 -10.0702 0.636051 -3.2896 -10.0197 -1.59474 
42.2254 99.2182 -273.973 -43.6205 -86.8776 -43.7633 -176.324 6.82132 86.8104 -17.2858 11.6108 -1.27856 64.5171 6.03749 8.01361 33.8918 3.87798 0.215504 174.184 3.75576 91.8911 -15.8124 -7.57037 -3.18573 69.0179 -4.38941 -2.31171 32.1822 -0.746531 -4.62675 -0.195625 7.14764 -89.7782 12.5787 -0.282981 0.474567 0.907616 -0.261819 0.486556 -21.627 -0.412528 0.367584 -1.61436 -0.412522 0.367584 92.9073 -34.4207 -99.3767 21.9267 -42.5485 -10.3032 -21.9244 5.02153 -95.0342 18.3747 0.830025 0.857877 -93.4538 -45.3865 72.7718 -18.7401 40.8096 0.282418 31.7017 -18.0861 -93.736 10.7293 0.787876 3.21334 2.35579 -8.80279 0.952094 -4.53411 -8.79742 -1.86006 
41.9529 99.2773 -274.142 -51.614 -85.0744 -51.9366 -176.128 7.4131 86.9399 -16.7153 10.3967 -1.56623 64.0902 5.72126 8.28234 34.2156 4.11829 0.197528 174.406 5.0139 91.813 -16.1244 -9.01665 -3.25055 69.0381 -4.46539 -2.34731 31.5899 -0.739216 -4.82038 -0.132985 7.02683 -89.7728 12.8203 -0.15527 0.472848 1.14932 -0.134314 0.47922 -21.3854 -0.290206 0.40432 -1.37273 -0.290198 0.404328 93.5373 -32.9992 -98.5578 17.6792 -39.9449 -17.3942 -14.4805 14.057 -109.812 24.7452 0.889919 -1.19815 -93.5198 -45.0115 72.5573 -17.9482 33.5229 0.452926 19.1573 -19.8854 -105.741 10.2275 0.702774 2.80645 3.33101 -5.22929 1.3874 -4.89076 -5.36064 -1.08496 
41.8239 99.3051 -274.012 -58.6647 -84.5843 -59.0448 -176.123 6.82549 86.9283 -16.2169 9.87822 -1.53278 63.8639 5.6307 8.37983 34.2712 4.03612 -0.225219 174.499 4.76448 91.7926 -16.1327 -9.57627 -3.41747 68.6279 -4.20933 -2.23194 32.4806 -0.756571 -4.57798 -0.198663 7.00758 -89.8072 12.8591 -0.302054 0.421747 1.18815 -0.283204 0.434623 -21.3469 -0.414847 0.311469 -1.33429 -0.41485 0.311463 95.1604 -30.4812 -96.0068 17.6021 -32.5629 -24.8586 -0.852292 7.6722 -125.628 23.5389 1.13767 -1.22569 -93.5847 -45.4035 72.5743 -16.8213 24.2557 3.30405 8.91613 -16.3777 -114.317 9.42967 0.363179 0.0253826 3.01577 -1.21158 0.831569 -4.17626 -1.35141 0.989582 
41.6113 99.3744 -273.825 -65.5367 -84.03 -65.8748 -175.971 6.40147 87.1264 -16.4524 8.96413 -1.47706 64.0188 5.07663 7.33923 34.7325 4.57439 0.407249 174.759 4.16039 91.9716 -15.8332 -10.0189 -3.66498 68.558 -4.23939 -2.23866 32.1608 -0.735968 -4.56542 -0.301892 6.98222 -89.7847 12.9104 -0.496142 0.490446 1.23949 -0.47407 0.511799 -21.2961 -0.620608 0.318657 -1.28341 -0.620598 0.31866 95.6846 -30.3729 -94.9793 22.2909 -19.7299 -30.3339 16.1283 -9.51331 -130.863 24.0426 0.193586 -8.17943 -92.9254 -45.0749 73.4997 -15.4417 16.8936 6.58836 6.94801 -13.793 -116.746 7.255 0.266438 -0.128139 2.36045 2.47951 0.367367 -4.29913 2.35371 1.63208 
41.4307 99.3095 -273.733 -69.32 -83.4696 -69.6574 -176.358 6.20089 86.8991 -16.6528 7.75251 -0.998477 64.2315 5.28825 7.16674 35.0034 4.98101 1.05951 174.813 4.27702 92.028 -16.5101 -10.4127 -3.71852 68.9355 -4.33627 -2.29019 32.1587 -0.71829 -4.44784 -0.258608 6.95484 -89.7927 12.9649 -0.413875 0.464926 1.29395 -0.393013 0.482686 -21.2414 -0.534477 0.31904 -1.22874 -0.534474 0.319042 95.8607 -31.0516 -94.4846 30.7125 -9.53454 -33.6544 39.1977 -27.58 -122.681 26.1861 -0.912231 -15.5615 -93.0917 -45.1471 73.2626 -14.1841 13.0646 8.40928 6.93576 -12.0067 -113.507 4.80167 0.166433 -0.279967 2.47269 4.15892 0.399881 -5.62037 3.98694 1.74246 
41.1862 99.2672 -273.653 -70.1098 -83.1815 -70.1731 -176.263 6.41448 87.2189 -17.2248 7.38009 -0.872919 64.532 5.54139 7.32358 35.047 4.89804 0.680904 175.067 4.24757 92.4424 -16.5868 -10.5523 -3.71762 68.8978 -4.33882 -2.29126 32.3052 -0.770309 -4.73883 -0.133817 6.91113 -89.8588 13.0518 -0.197649 0.306737 1.38085 -0.183958 0.315134 -21.1542 -0.280698 0.233156 -1.1416 -0.280705 0.233148 95.6171 -31.8586 -94.7968 38.3783 -2.92608 -33.6222 56.9084 -34.4565 -112.497 30.7068 -0.943799 -15.9165 -93.5334 -45.7981 72.7712 -12.7259 13.3866 8.41632 9.02859 -11.6698 -107.981 4.06324 0.173994 0.332869 2.26308 2.93562 0.775621 -5.89369 2.71774 1.71266 
41.1533 99.2072 -273.655 -65.3592 -83.8946 -65.3362 -176.337 6.68484 87.2699 -17.1354 8.71009 -0.876003 64.023 6.03095 8.70715 35.5113 4.98745 -0.175219 174.857 4.49793 92.5183 -16.8194 -10.0485 -3.43047 69.2649 -4.47947 -2.36027 31.7783 -0.750583 -4.82082 -0.201905 6.86625 -89.8682 13.142 -0.337296 0.305422 1.47101 -0.32352 0.319965 -21.0644 -0.41349 0.189935 -1.05172 -0.413491 0.189926 95.3234 -32.6654 -95.1994 38.5332 -3.51489 -33.7476 53.2618 -30.961 -112.667 30.7409 -1.00828 -15.8406 -93.7272 -45.6585 72.4312 -13.6738 13.9606 8.96213 13.0926 -11.6186 -103.573 3.69006 0.235068 1.75409 1.23889 -0.645207 -0.596356 -4.50397 -0.62105 3.32199 
40.9988 99.2289 -273.415 -72.9753 -82.7515 -73.245 -176.005 5.52155 87.0557 -16.1993 7.79267 -1.22692 63.9706 5.84801 8.63939 35.4435 5.007 0.0528595 175.136 4.01035 92.3295 -16.9252 -11.1066 -3.92457 69.4897 -4.67727 -2.44197 31.6556 -0.744049 -4.82854 -0.153394 6.90967 -89.8995 13.0547 -0.256044 0.233059 1.38375 -0.245538 0.244094 -21.1515 -0.314257 0.145318 -1.13884 -0.314244 0.145338 95.1825 -31.5441 -95.7186 35.0163 -8.42985 -35.7878 26.9015 -19.5422 -123.539 20.0277 -0.576712 -13.3802 -93.8781 -46.2725 72.3831 -15.8515 13.555 10.6209 14.2466 -11.0355 -101.403 3.68363 0.198789 1.1088 1.17539 -3.2642 0.131966 -4.20611 -3.31974 3.73505 
40.7299 99.2014 -272.912 -83.842 -79.2495 -85.2042 -175.957 2.97346 86.0111 -14.2176 4.24379 -1.60551 63.7996 5.85307 8.71691 35.1967 4.96732 0.533107 175.6 3.75929 91.406 -18.8701 -14.1719 -5.15605 70.1617 -5.01274 -2.59605 32.046 -0.801652 -5.05677 0.258246 6.98805 -89.7656 12.8971 0.625172 0.3934 1.22623 0.641893 0.365498 -21.3091 0.478042 0.563107 -1.29646 0.478043 0.563097 95.0286 -31.4053 -96.0528 31.451 -12.7575 -37.2664 14.0343 -10.52 -128.991 19.5578 -0.181128 -9.68136 -94.3602 -46.5886 71.7429 -18.1675 14.2502 11.6032 12.0653 -10.566 -100.156 3.63978 0.166992 0.516833 1.47651 -4.50918 -1.11932 -4.70224 -4.41127 5.27386 
40.6242 99.2074 -272.836 -84.3832 -78.8274 -85.9078 -175.855 2.61399 86.0354 -13.8907 3.67025 -1.71892 63.9678 5.44233 7.77664 34.8413 4.8198 0.941692 175.806 3.65814 91.378 -18.9824 -14.3963 -5.39361 70.2085 -5.07236 -2.61757 31.9562 -0.824732 -5.25198 0.455006 6.99406 -89.7612 12.8845 1.01796 0.354738 1.21393 1.03259 0.309575 -21.3233 0.864283 0.644286 -1.31065 0.864282 0.64428 94.2505 -32.1798 -97.3902 32.3621 -11.7413 -34.2614 29.2168 -19.201 -122.775 25.8359 -1.04757 -14.9169 -94.9696 -47.4149 71.0741 -19.3967 16.9289 11.1347 12.0384 -10.9335 -98.9184 3.37797 0.110094 -0.377 2.53853 -3.29913 -0.361269 -5.70507 -3.3132 3.5081 
